<svg xmlns="http://www.w3.org/2000/svg" width="118.67999999999999" height="35" viewBox="0 0 118.67999999999999 35"><rect class="svg__rect" x="0" y="0" width="78.38" height="35" fill="#FFFFFF"/><rect class="svg__rect" x="76.38" y="0" width="42.3" height="35" fill="#FDB913"/><path class="svg__text" d="M15.70 22L14.22 22L14.22 13.47L19.64 13.47L19.64 14.66L15.70 14.66L15.70 17.20L19.13 17.20L19.13 18.38L15.70 18.38L15.70 22ZM29.15 22L23.80 22L23.80 13.47L25.28 13.47L25.28 20.82L29.15 20.82L29.15 22ZM33.01 18.00L33.01 18.00L33.01 17.52Q33.01 16.28 33.45 15.32Q33.89 14.37 34.70 13.86Q35.50 13.35 36.55 13.35Q37.59 13.35 38.40 13.85Q39.20 14.35 39.64 15.29Q40.08 16.23 40.09 17.48L40.09 17.48L40.09 17.96Q40.09 19.21 39.65 20.16Q39.22 21.10 38.41 21.61Q37.61 22.12 36.56 22.12L36.56 22.12Q35.52 22.12 34.71 21.61Q33.90 21.10 33.46 20.17Q33.01 19.23 33.01 18.00ZM34.49 17.46L34.49 17.96Q34.49 19.36 35.04 20.13Q35.59 20.90 36.56 20.90L36.56 20.90Q37.54 20.90 38.07 20.15Q38.60 19.40 38.60 17.96L38.60 17.96L38.60 17.51Q38.60 16.09 38.07 15.34Q37.53 14.58 36.55 14.58L36.55 14.58Q35.59 14.58 35.04 15.33Q34.50 16.09 34.49 17.46L34.49 17.46ZM45.93 22L43.97 13.47L45.44 13.47L46.76 19.88L48.39 13.47L49.63 13.47L51.24 19.89L52.56 13.47L54.03 13.47L52.06 22L50.64 22L49.02 15.77L47.36 22L45.93 22ZM59.19 22L57.47 22L60.11 17.70L57.53 13.47L59.24 13.47L61.03 16.55L62.83 13.47L64.54 13.47L61.96 17.70L64.60 22L62.87 22L61.03 18.87L59.19 22Z" fill="#000000"/><path class="svg__text" d="M91.99 22L89.56 22L93.27 13.60L95.61 13.60L99.33 22L96.86 22L96.20 20.37L92.65 20.37L91.99 22ZM94.42 15.93L93.34 18.61L95.50 18.61L94.42 15.93ZM105.86 22L103.48 22L103.48 13.60L105.86 13.60L105.86 22Z" fill="#FFFFFF" x="89.38"/></svg>