<svg width="178" height="26" viewBox="0 0 178 26" fill="none" xmlns="http://www.w3.org/2000/svg">
<path d="M134 19.9909H116V24.7188H134V19.9909Z" fill="#FCB813"/>
<path d="M127.749 8.09696L134 15.263H128.245L124.841 11.2802L121.437 15.263H116L122.233 8.17654L116.159 1.32526H121.932L125.159 5.08731L128.386 1.32526H133.841L127.749 8.09696Z" fill="#D9D9D9"/>
<path d="M6.25909 6.3878V11.0261H19.814V16.5596H6.25909V25.1649H0V0.793335H22.4828V6.40815H6.25909V6.3878Z" fill="#D9D9D9"/>
<path d="M46.463 19.4483V25.1649H25.7466V0.793335H32.0057V19.4483H46.463Z" fill="#D9D9D9"/>
<path d="M47.5576 12.9792C47.5576 4.7197 53.0487 0 61.5542 0C70.0596 0 75.5699 4.74004 75.5699 12.9792C75.5699 21.2183 70.0404 25.9583 61.5542 25.9583C53.0487 25.9583 47.5576 21.2386 47.5576 12.9792ZM69.1956 12.9792C69.1956 8.38153 66.2773 5.77756 61.5542 5.77756C56.8695 5.77756 53.9127 8.38153 53.9127 12.9792C53.9127 17.5768 56.8311 20.1808 61.5542 20.1808C66.2773 20.1808 69.1956 17.5768 69.1956 12.9792Z" fill="#D9D9D9"/>
<path d="M114.353 0.793335L106.539 25.1649H100.318L95.3263 8.19838L90.296 25.1649H84.1329L76.2803 0.793335H82.693L87.3777 17.5361L92.504 0.793335H98.2639L103.39 17.5361L108.075 0.793335H114.353Z" fill="#D9D9D9"/>
<path d="M137.777 24.046C137.777 23.2526 138.334 22.6627 139.159 22.6627C139.985 22.6627 140.542 23.2526 140.542 24.046C140.542 24.8394 139.985 25.4294 139.159 25.4294C138.334 25.4497 137.777 24.8598 137.777 24.046Z" fill="#D9D9D9"/>
<path d="M165.751 17.9633H149.489L145.706 25.1649H143.806L156.689 0.793335H158.589L171.472 25.1649H169.572L165.751 17.9633ZM164.887 16.2951L157.591 2.4615L150.334 16.2951H164.887Z" fill="#D9D9D9"/>
<path d="M176.292 25.1649V0.793335H178V25.1649H176.292Z" fill="#D9D9D9"/>
</svg>
